<?xml version="1.0" encoding="UTF-8"?>
<svg width="303px" height="125px" viewBox="0 0 303 125" version="1.1" xmlns="http://www.w3.org/2000/svg" xmlns:xlink="http://www.w3.org/1999/xlink">
    <!-- Generator: Sketch 53.2 (72643) - https://sketchapp.com -->
    <title>Group</title>
    <desc>Created with Sketch.</desc>
    <g id="David" stroke="none" stroke-width="1" fill="none" fill-rule="evenodd">
        <g id="Artboard" transform="translate(-137.000000, -129.000000)" fill="#FFFFFF" fill-rule="nonzero">
            <g id="Group" transform="translate(137.000000, 129.000000)">
                <path d="M40,40.0872717 L40,6 C40,2.6862915 42.6862915,6.08718376e-16 46,0 C49.3137085,-6.08718376e-16 52,2.6862915 52,6 L52,60 C52,60.2188535 51.9882826,60.4349703 51.9654409,60.6477572 C51.9883866,61.0956049 52,61.5464462 52,62 C52,76.3594035 40.3594035,88 26,88 C11.6405965,88 0,76.3594035 0,62 C0,47.6405965 11.6405965,36 26,36 C31.1545692,36 35.9587979,37.4999859 40,40.0872717 Z M26,75.2280702 C33.3056614,75.2280702 39.2280702,69.3056614 39.2280702,62 C39.2280702,54.6943386 33.3056614,48.7719298 26,48.7719298 C18.6943386,48.7719298 12.7719298,54.6943386 12.7719298,62 C12.7719298,69.3056614 18.6943386,75.2280702 26,75.2280702 Z" id="Combined-Shape"></path>
                <path d="M263,84.9127283 L263,119 C263,122.313708 260.313708,125 257,125 C253.686292,125 251,122.313708 251,119 L251,65 C251,64.7811465 251.011717,64.5650297 251.034559,64.3522428 C251.011613,63.9043951 251,63.4535538 251,63 C251,48.6405965 262.640597,37 277,37 C291.359403,37 303,48.6405965 303,63 C303,77.3594035 291.359403,89 277,89 C271.845431,89 267.041202,87.5000141 263,84.9127283 Z M277,49.7719298 C269.694339,49.7719298 263.77193,55.6943386 263.77193,63 C263.77193,70.3056614 269.694339,76.2280702 277,76.2280702 C284.305661,76.2280702 290.22807,70.3056614 290.22807,63 C290.22807,55.6943386 284.305661,49.7719298 277,49.7719298 Z M162,47.7719298 C154.694339,47.7719298 148.77193,53.6943386 148.77193,61 C148.77193,68.3056614 154.694339,74.2280702 162,74.2280702 C169.305661,74.2280702 175.22807,68.3056614 175.22807,61 C175.22807,53.6943386 169.305661,47.7719298 162,47.7719298 Z M162,35 C176.359403,35 188,46.6405965 188,61 C188,75.3594035 176.359403,87 162,87 C147.640597,87 136,75.3594035 136,61 C136,46.6405965 147.640597,35 162,35 Z M62.3,46.6 L62.3,37 L70.7,37 L70.7,23.1 L82.5,23.1 L82.5,37 L94.5,37 L94.5,46.6 L82.5,46.6 L82.5,68.9 C82.5,71.033344 82.8833295,72.799993 83.65,74.2 C84.4166705,75.600007 86.13332,76.3 88.8,76.3 C89.600004,76.3 90.466662,76.2166675 91.4,76.05 C92.333338,75.8833325 93.166663,75.633335 93.9,75.3 L94.3,84.7 C93.233328,85.100002 91.966674,85.4166655 90.5,85.65 C89.033326,85.8833345 87.63334,86 86.3,86 C83.099984,86 80.50001,85.5500045 78.5,84.65 C76.49999,83.7499955 74.9166725,82.5166745 73.75,80.95 C72.5833275,79.3833255 71.7833355,77.5833435 71.35,75.55 C70.9166645,73.5166565 70.7,71.333345 70.7,69 L70.7,46.6 L62.3,46.6 Z M103.6,37 L115.1,37 L115.1,45 L115.3,45 C116.63334,42.199986 118.499988,39.933342 120.9,38.2 C123.300012,36.466658 126.099984,35.6 129.3,35.6 C129.766669,35.6 130.266664,35.6166665 130.8,35.65 C131.333336,35.6833335 131.799998,35.766666 132.2,35.9 L132.2,46.9 C131.399996,46.699999 130.71667,46.566667 130.15,46.5 C129.583331,46.433333 129.033336,46.4 128.5,46.4 C125.766653,46.4 123.566675,46.899995 121.9,47.9 C120.233325,48.900005 118.933338,50.099993 118,51.5 C117.066662,52.900007 116.433335,54.333326 116.1,55.8 C115.766665,57.266674 115.6,58.433329 115.6,59.3 L115.6,85 L103.6,85 L103.6,37 Z M239.8,85 L228.4,85 L228.4,77.3 L228.2,77.3 C227.133328,79.700012 225.283347,81.8166575 222.65,83.65 C220.016654,85.4833425 216.900018,86.4 213.3,86.4 C210.166651,86.4 207.483345,85.8500055 205.25,84.75 C203.016656,83.6499945 201.183341,82.200009 199.75,80.4 C198.31666,78.599991 197.26667,76.533345 196.6,74.2 C195.93333,71.866655 195.6,69.466679 195.6,67 L195.6,37 L207.6,37 L207.6,63.6 C207.6,65.000007 207.699999,66.466659 207.9,68 C208.100001,69.533341 208.53333,70.9166605 209.2,72.15 C209.86667,73.3833395 210.783328,74.399996 211.95,75.2 C213.116673,76.000004 214.666657,76.4 216.6,76.4 C218.466676,76.4 220.11666,76.0166705 221.55,75.25 C222.983341,74.4833295 224.149996,73.500006 225.05,72.3 C225.950005,71.099994 226.633331,69.7166745 227.1,68.15 C227.566669,66.5833255 227.8,65.000008 227.8,63.4 L227.8,37 L239.8,37 L239.8,85 Z" id="troupe"></path>
                <path d="M37.718,100.63 L37.718,103.842 L43.746,103.842 L43.746,106.944 L37.718,106.944 L37.718,112.994 L34,112.994 L34,97.418 L44.252,97.418 L44.252,100.63 L37.718,100.63 Z M47.5520002,112.994 L47.5520002,97.418 L58.0240002,97.418 L58.0240002,100.608 L51.1820002,100.608 L51.1820002,103.534 L57.6500002,103.534 L57.6500002,106.548 L51.1820002,106.548 L51.1820002,109.782 L58.4200002,109.782 L58.4200002,112.994 L47.5520002,112.994 Z M72.3460003,112.994 L71.1360003,109.936 L65.1080003,109.936 L63.9640003,112.994 L59.8720003,112.994 L66.4060003,97.418 L70.0580003,97.418 L76.5260003,112.994 L72.3460003,112.994 Z M68.1660003,101.576 L66.1860003,106.922 L70.1020003,106.922 L68.1660003,101.576 Z M87.0420005,112.994 L83.6760005,106.812 L82.4000005,106.812 L82.4000005,112.994 L78.7040005,112.994 L78.7040005,97.418 L84.6440005,97.418 C85.3920043,97.418 86.1216636,97.4949992 86.8330005,97.649 C87.5443374,97.8030008 88.182331,98.0633315 88.7470005,98.43 C89.31167,98.7966685 89.7626655,99.2806637 90.1000005,99.882 C90.4373355,100.483336 90.6060005,101.231329 90.6060005,102.126 C90.6060005,103.182005 90.3200034,104.06933 89.7480005,104.788 C89.1759977,105.50667 88.3840056,106.019998 87.3720005,106.328 L91.4420005,112.994 L87.0420005,112.994 Z M86.8880005,102.192 C86.8880005,101.825332 86.8110013,101.528334 86.6570005,101.301 C86.5029998,101.073666 86.3050017,100.897667 86.0630005,100.773 C85.8209993,100.648333 85.5496687,100.564 85.2490005,100.52 C84.9483324,100.476 84.6586686,100.454 84.3800005,100.454 L82.3780005,100.454 L82.3780005,104.084 L84.1600005,104.084 C84.4680021,104.084 84.7833322,104.058334 85.1060005,104.007 C85.4286688,103.955666 85.7219992,103.864001 85.9860005,103.732 C86.2500018,103.599999 86.466333,103.409335 86.6350005,103.16 C86.803668,102.910665 86.8880005,102.588002 86.8880005,102.192 Z M94.1700007,112.994 L94.1700007,97.418 L97.9540007,97.418 L97.9540007,109.716 L103.982001,109.716 L103.982001,112.994 L94.1700007,112.994 Z M106.622001,112.994 L106.622001,97.418 L117.094001,97.418 L117.094001,100.608 L110.252001,100.608 L110.252001,103.534 L116.720001,103.534 L116.720001,106.548 L110.252001,106.548 L110.252001,109.782 L117.490001,109.782 L117.490001,112.994 L106.622001,112.994 Z M129.084001,101.466 C128.761333,101.055331 128.33967,100.729001 127.819001,100.487 C127.298332,100.244999 126.796003,100.124 126.312001,100.124 C126.062666,100.124 125.809669,100.146 125.553001,100.19 C125.296333,100.234 125.065335,100.318333 124.860001,100.443 C124.654667,100.567667 124.482335,100.728999 124.343001,100.927 C124.203667,101.125001 124.134001,101.377998 124.134001,101.686 C124.134001,101.950001 124.189,102.169999 124.299001,102.346 C124.409002,102.522001 124.570333,102.675999 124.783001,102.808 C124.995669,102.940001 125.248666,103.060999 125.542001,103.171 C125.835336,103.281001 126.165333,103.394666 126.532001,103.512 C127.060004,103.688001 127.609998,103.882332 128.182001,104.095 C128.754004,104.307668 129.274665,104.589998 129.744001,104.942 C130.213337,105.294002 130.602,105.730331 130.910001,106.251 C131.218003,106.771669 131.372001,107.420663 131.372001,108.198 C131.372001,109.092671 131.207003,109.86633 130.877001,110.519 C130.546999,111.17167 130.103337,111.710665 129.546001,112.136 C128.988665,112.561335 128.350671,112.876666 127.632001,113.082 C126.913331,113.287334 126.172672,113.39 125.410001,113.39 C124.295329,113.39 123.21734,113.195669 122.176001,112.807 C121.134663,112.418331 120.269338,111.86467 119.580001,111.146 L122.044001,108.638 C122.425336,109.107336 122.927665,109.499665 123.551001,109.815 C124.174337,110.130335 124.793998,110.288 125.410001,110.288 C125.688669,110.288 125.96,110.258667 126.224001,110.2 C126.488002,110.141333 126.719,110.046001 126.917001,109.914 C127.115002,109.781999 127.272667,109.606001 127.390001,109.386 C127.507335,109.165999 127.566001,108.902002 127.566001,108.594 C127.566001,108.300665 127.492668,108.051334 127.346001,107.846 C127.199334,107.640666 126.990336,107.453668 126.719001,107.285 C126.447666,107.116332 126.110336,106.962334 125.707001,106.823 C125.303666,106.683666 124.845337,106.533334 124.332001,106.372 C123.833332,106.210666 123.34567,106.020001 122.869001,105.8 C122.392332,105.579999 121.967003,105.297668 121.593001,104.953 C121.218999,104.608332 120.918336,104.190336 120.691001,103.699 C120.463667,103.207664 120.350001,102.610004 120.350001,101.906 C120.350001,101.040662 120.525999,100.300003 120.878001,99.684 C121.230003,99.0679969 121.691998,98.562002 122.264001,98.166 C122.836004,97.769998 123.481331,97.4803342 124.200001,97.297 C124.918671,97.1136657 125.644664,97.022 126.378001,97.022 C127.258005,97.022 128.15633,97.1833317 129.073001,97.506 C129.989672,97.8286683 130.792664,98.3053302 131.482001,98.936 L129.084001,101.466 Z M142.966001,101.466 C142.643333,101.055331 142.22167,100.729001 141.701001,100.487 C141.180332,100.244999 140.678004,100.124 140.194001,100.124 C139.944667,100.124 139.691669,100.146 139.435001,100.19 C139.178333,100.234 138.947336,100.318333 138.742001,100.443 C138.536667,100.567667 138.364335,100.728999 138.225001,100.927 C138.085667,101.125001 138.016001,101.377998 138.016001,101.686 C138.016001,101.950001 138.071001,102.169999 138.181001,102.346 C138.291002,102.522001 138.452333,102.675999 138.665001,102.808 C138.877669,102.940001 139.130666,103.060999 139.424001,103.171 C139.717336,103.281001 140.047333,103.394666 140.414001,103.512 C140.942004,103.688001 141.491998,103.882332 142.064001,104.095 C142.636004,104.307668 143.156666,104.589998 143.626001,104.942 C144.095337,105.294002 144.484,105.730331 144.792001,106.251 C145.100003,106.771669 145.254001,107.420663 145.254001,108.198 C145.254001,109.092671 145.089003,109.86633 144.759001,110.519 C144.429,111.17167 143.985337,111.710665 143.428001,112.136 C142.870665,112.561335 142.232671,112.876666 141.514001,113.082 C140.795331,113.287334 140.054672,113.39 139.292001,113.39 C138.177329,113.39 137.09934,113.195669 136.058001,112.807 C135.016663,112.418331 134.151338,111.86467 133.462001,111.146 L135.926001,108.638 C136.307336,109.107336 136.809665,109.499665 137.433001,109.815 C138.056338,110.130335 138.675998,110.288 139.292001,110.288 C139.570669,110.288 139.842,110.258667 140.106001,110.2 C140.370003,110.141333 140.601,110.046001 140.799001,109.914 C140.997002,109.781999 141.154667,109.606001 141.272001,109.386 C141.389335,109.165999 141.448001,108.902002 141.448001,108.594 C141.448001,108.300665 141.374669,108.051334 141.228001,107.846 C141.081334,107.640666 140.872336,107.453668 140.601001,107.285 C140.329667,107.116332 139.992337,106.962334 139.589001,106.823 C139.185666,106.683666 138.727337,106.533334 138.214001,106.372 C137.715332,106.210666 137.22767,106.020001 136.751001,105.8 C136.274332,105.579999 135.849003,105.297668 135.475001,104.953 C135.100999,104.608332 134.800336,104.190336 134.573001,103.699 C134.345667,103.207664 134.232001,102.610004 134.232001,101.906 C134.232001,101.040662 134.407999,100.300003 134.760001,99.684 C135.112003,99.0679969 135.573998,98.562002 136.146001,98.166 C136.718004,97.769998 137.363331,97.4803342 138.082001,97.297 C138.800671,97.1136657 139.526664,97.022 140.260001,97.022 C141.140006,97.022 142.03833,97.1833317 142.955001,97.506 C143.871672,97.8286683 144.674664,98.3053302 145.364001,98.936 L142.966001,101.466 Z M163.228002,101.466 C162.905333,101.055331 162.483671,100.729001 161.963002,100.487 C161.442332,100.244999 160.940004,100.124 160.456002,100.124 C160.206667,100.124 159.95367,100.146 159.697002,100.19 C159.440334,100.234 159.209336,100.318333 159.004002,100.443 C158.798667,100.567667 158.626336,100.728999 158.487002,100.927 C158.347668,101.125001 158.278002,101.377998 158.278002,101.686 C158.278002,101.950001 158.333001,102.169999 158.443002,102.346 C158.553002,102.522001 158.714334,102.675999 158.927002,102.808 C159.139669,102.940001 159.392667,103.060999 159.686002,103.171 C159.979336,103.281001 160.309333,103.394666 160.676002,103.512 C161.204004,103.688001 161.753999,103.882332 162.326002,104.095 C162.898004,104.307668 163.418666,104.589998 163.888002,104.942 C164.357337,105.294002 164.746,105.730331 165.054002,106.251 C165.362003,106.771669 165.516002,107.420663 165.516002,108.198 C165.516002,109.092671 165.351003,109.86633 165.021002,110.519 C164.691,111.17167 164.247338,111.710665 163.690002,112.136 C163.132665,112.561335 162.494672,112.876666 161.776002,113.082 C161.057331,113.287334 160.316672,113.39 159.554002,113.39 C158.439329,113.39 157.36134,113.195669 156.320002,112.807 C155.278663,112.418331 154.413338,111.86467 153.724002,111.146 L156.188002,108.638 C156.569337,109.107336 157.071665,109.499665 157.695002,109.815 C158.318338,110.130335 158.937998,110.288 159.554002,110.288 C159.83267,110.288 160.104,110.258667 160.368002,110.2 C160.632003,110.141333 160.863001,110.046001 161.061002,109.914 C161.259003,109.781999 161.416668,109.606001 161.534002,109.386 C161.651335,109.165999 161.710002,108.902002 161.710002,108.594 C161.710002,108.300665 161.636669,108.051334 161.490002,107.846 C161.343334,107.640666 161.134336,107.453668 160.863002,107.285 C160.591667,107.116332 160.254337,106.962334 159.851002,106.823 C159.447666,106.683666 158.989337,106.533334 158.476002,106.372 C157.977332,106.210666 157.489671,106.020001 157.013002,105.8 C156.536333,105.579999 156.111003,105.297668 155.737002,104.953 C155.363,104.608332 155.062336,104.190336 154.835002,103.699 C154.607667,103.207664 154.494002,102.610004 154.494002,101.906 C154.494002,101.040662 154.67,100.300003 155.022002,99.684 C155.374003,99.0679969 155.835999,98.562002 156.408002,98.166 C156.980004,97.769998 157.625331,97.4803342 158.344002,97.297 C159.062672,97.1136657 159.788665,97.022 160.522002,97.022 C161.402006,97.022 162.30033,97.1833317 163.217002,97.506 C164.133673,97.8286683 164.936665,98.3053302 165.626002,98.936 L163.228002,101.466 Z M168.882002,112.994 L168.882002,97.418 L172.666002,97.418 L172.666002,112.994 L168.882002,112.994 Z M186.658002,112.994 L180.388002,102.808 L180.322002,102.808 L180.410002,112.994 L176.758002,112.994 L176.758002,97.418 L181.048002,97.418 L187.296002,107.582 L187.362002,107.582 L187.274002,97.418 L190.926002,97.418 L190.926002,112.994 L186.658002,112.994 Z M208.856002,112.048 C208.093332,112.444002 207.202341,112.766665 206.183002,113.016 C205.163664,113.265335 204.052675,113.39 202.850002,113.39 C201.603329,113.39 200.455674,113.192002 199.407002,112.796 C198.35833,112.399998 197.456339,111.84267 196.701002,111.124 C195.945665,110.40533 195.355338,109.543672 194.930002,108.539 C194.504667,107.534328 194.292002,106.416006 194.292002,105.184 C194.292002,103.937327 194.508333,102.808005 194.941002,101.796 C195.373671,100.783995 195.971332,99.9223369 196.734002,99.211 C197.496673,98.4996631 198.39133,97.9533352 199.418002,97.572 C200.444674,97.1906648 201.551996,97 202.740002,97 C203.972008,97 205.115997,97.1869981 206.172002,97.561 C207.228007,97.9350019 208.085999,98.4373302 208.746002,99.068 L206.370002,101.774 C206.003334,101.348665 205.519338,101.000335 204.918002,100.729 C204.316666,100.457665 203.634673,100.322 202.872002,100.322 C202.211999,100.322 201.603338,100.442999 201.046002,100.685 C200.488666,100.927001 200.004671,101.264331 199.594002,101.697 C199.183333,102.129669 198.864337,102.642997 198.637002,103.237 C198.409668,103.831003 198.296002,104.479996 198.296002,105.184 C198.296002,105.90267 198.398668,106.562664 198.604002,107.164 C198.809336,107.765336 199.113667,108.282331 199.517002,108.715 C199.920337,109.147669 200.418999,109.484999 201.013002,109.727 C201.607005,109.969001 202.285332,110.09 203.048002,110.09 C203.488004,110.09 203.906,110.057 204.302002,109.991 C204.698004,109.925 205.064667,109.818667 205.402002,109.672 L205.402002,106.834 L202.432002,106.834 L202.432002,103.798 L208.856002,103.798 L208.856002,112.048 Z M212.816002,112.994 L212.816002,97.418 L223.288002,97.418 L223.288002,100.608 L216.446002,100.608 L216.446002,103.534 L222.914002,103.534 L222.914002,106.548 L216.446002,106.548 L216.446002,109.782 L223.684002,109.782 L223.684002,112.994 L212.816002,112.994 Z M235.388002,112.994 L232.022002,106.812 L230.746002,106.812 L230.746002,112.994 L227.050002,112.994 L227.050002,97.418 L232.990002,97.418 C233.738006,97.418 234.467666,97.4949992 235.179002,97.649 C235.890339,97.8030008 236.528333,98.0633315 237.093002,98.43 C237.657672,98.7966685 238.108667,99.2806637 238.446002,99.882 C238.783337,100.483336 238.952002,101.231329 238.952002,102.126 C238.952002,103.182005 238.666005,104.06933 238.094002,104.788 C237.522,105.50667 236.730007,106.019998 235.718002,106.328 L239.788002,112.994 L235.388002,112.994 Z M235.234002,102.192 C235.234002,101.825332 235.157003,101.528334 235.003002,101.301 C234.849002,101.073666 234.651004,100.897667 234.409002,100.773 C234.167001,100.648333 233.895671,100.564 233.595002,100.52 C233.294334,100.476 233.00467,100.454 232.726002,100.454 L230.724002,100.454 L230.724002,104.084 L232.506002,104.084 C232.814004,104.084 233.129334,104.058334 233.452002,104.007 C233.774671,103.955666 234.068001,103.864001 234.332002,103.732 C234.596004,103.599999 234.812335,103.409335 234.981002,103.16 C235.14967,102.910665 235.234002,102.588002 235.234002,102.192 Z" id="FEARLESSSINGER"></path>
            </g>
        </g>
    </g>
</svg>