<?xml version="1.0" encoding="UTF-8"?>
<svg width="500px" height="500px" viewBox="0 0 500 500" version="1.1" xmlns="http://www.w3.org/2000/svg" xmlns:xlink="http://www.w3.org/1999/xlink">
    <!-- Generator: Sketch 53.2 (72643) - https://sketchapp.com -->
    <title>Artboard</title>
    <desc>Created with Sketch.</desc>
    <defs>
        <path d="M464.78565,202.201241 L459.320992,156.464533 C458.733384,151.548325 454.308619,148.010433 449.3798,148.513124 C431.317457,150.359651 414.868083,137.202578 412.71655,119.189184 C410.564108,101.17579 423.450602,84.5225655 441.441197,82.0671835 C446.351851,81.3966265 449.817554,76.9177773 449.229947,72.001569 L443.766197,26.2648611 C442.821666,18.3633582 438.854635,11.3020933 432.595299,6.38134798 C426.335055,1.46151006 418.532682,-0.728008357 410.624958,0.213856592 L91.6249776,38.2559452 C83.7962669,39.1896437 76.7949292,43.0868595 71.8770095,49.2316662 L29.8181241,49.2316662 C13.3760152,49.233481 0,62.5974376 0,79.0238164 L0,125.085368 C0,130.036964 3.97338855,134.073917 8.92763644,134.158304 C27.0835245,134.465907 41.8545397,149.475859 41.8545397,167.617194 C41.8545397,185.758529 27.0835245,200.768481 8.92763644,201.076992 C3.97338855,201.159564 0,205.197424 0,210.148113 L0,256.209665 C0,272.636043 13.3760152,286 29.8181241,286 L285.687999,286 L351.082255,286 C367.524364,286 380.900379,272.636043 380.900379,256.208757 L380.900379,242.206909 L438.712047,235.312603 C446.620679,234.369831 453.688316,230.406376 458.613501,224.151776 C463.53687,217.897175 465.729273,210.101837 464.78565,202.201241 Z M362.736317,226.0963 L362.736317,244.372836 L362.736317,256.208757 C362.736317,262.628501 357.5087,267.852313 351.082255,267.852313 L294.77003,267.852313 L294.77003,252.4785 L294.77003,250.839764 C294.77003,245.82828 290.704005,241.765921 285.687999,241.765921 C280.671993,241.765921 276.605968,245.82828 276.605968,250.839764 L276.605968,254.644427 L276.605968,267.851406 L165.857866,267.851406 L98.6444793,267.851406 L29.8181241,267.851406 C23.3925872,267.851406 18.1640619,262.628501 18.1640619,256.20785 L18.1640619,218.300961 C28.3677237,216.349178 37.7394715,211.364008 45.1731138,203.820922 C54.7464827,194.107373 60.0186016,181.249737 60.0186016,167.616287 C60.0186016,153.982837 54.7464827,141.125201 45.1731138,131.411651 C37.7385633,123.868565 28.3677237,118.883396 18.1640619,116.931612 L18.1640619,79.0238164 C18.1640619,72.6040722 23.391679,67.3802605 29.8181241,67.3802605 L65.3470292,67.3802605 L83.5256224,67.3802605 L276.606876,67.3802605 L276.606876,177.873359 C276.606876,182.884843 280.672901,186.947203 285.688907,186.947203 C290.704913,186.947203 294.770938,182.884843 294.770938,177.873359 L294.770938,67.3811679 L351.083163,67.3811679 C357.5087,67.3811679 362.737225,72.6040722 362.737225,79.0247238 L362.737225,116.93252 C352.533563,118.884303 343.161815,123.869473 335.727265,131.412559 C326.153896,141.126108 320.882685,153.983744 320.882685,167.617194 C320.882685,181.250644 326.154804,194.10828 335.727265,203.82183 C343.161815,211.364916 352.533563,216.350085 362.737225,218.301869 L362.737225,226.0963 L362.736317,226.0963 Z M444.337457,212.931968 C442.412974,215.375554 439.650221,216.925367 436.559606,217.293765 L380.900379,223.931281 L380.900379,210.148113 C380.900379,205.196517 376.92699,201.159564 371.972742,201.075177 C353.816854,200.767574 339.045839,185.757622 339.045839,167.615379 C339.045839,149.473137 353.816854,134.464092 371.972742,134.156489 C376.927898,134.072102 380.900379,130.035149 380.900379,125.083553 L380.900379,79.0220016 C380.900379,62.5947155 367.524364,49.2307588 351.082255,49.2307588 L285.687999,49.2307588 L152.846948,49.2307588 L412.777399,18.2345097 C415.866198,17.8652042 418.91776,18.7217751 421.36446,20.6445225 C423.811159,22.5672699 425.361461,25.3275331 425.730192,28.415362 L430.227614,66.0563867 C420.327292,69.2031956 411.613083,75.2627083 405.125788,83.6324215 C396.773044,94.4112401 393.063035,107.802418 394.680544,121.339685 C396.298054,134.876952 403.058718,147.020477 413.715573,155.531742 C421.992028,162.142037 431.888717,165.98118 442.252223,166.711625 L446.749644,204.352649 C447.118375,207.440478 446.261939,210.487475 444.337457,212.931968 Z" id="path-1"></path>
        <filter x="-0.5%" y="-0.9%" width="102.2%" height="103.5%" filterUnits="objectBoundingBox" id="filter-2">
            <feOffset dx="5" dy="5" in="SourceAlpha" result="shadowOffsetOuter1"></feOffset>
            <feColorMatrix values="0 0 0 0 0.00784313725   0 0 0 0 0.596078431   0 0 0 0 0.921568627  0 0 0 1 0" type="matrix" in="shadowOffsetOuter1"></feColorMatrix>
        </filter>
        <path d="M293.307,211.551444 C293.082,211.011376 292.803,210.489311 292.479,210.00325 C292.155,209.508189 291.777,209.049131 291.363,208.635079 C290.949,208.221028 290.481,207.84298 289.995,207.51894 C289.5,207.185898 288.978,206.915864 288.438,206.690836 C287.898,206.465808 287.331,206.285786 286.755,206.168771 C285.594,205.943743 284.397,205.943743 283.236,206.168771 C282.66,206.285786 282.102,206.465808 281.553,206.690836 C281.013,206.915864 280.491,207.185898 280.005,207.51894 C279.51,207.84298 279.051,208.221028 278.637,208.635079 C278.214,209.049131 277.845,209.508189 277.512,210.00325 C277.188,210.489311 276.909,211.011376 276.684,211.551444 C276.459,212.100513 276.288,212.667583 276.171,213.243655 C276.054,213.819727 276,214.413802 276,214.998875 C276,215.583948 276.054,216.178022 276.171,216.754094 C276.288,217.330166 276.459,217.897237 276.684,218.437305 C276.909,218.986373 277.188,219.508439 277.512,219.994499 C277.845,220.489561 278.214,220.948619 278.637,221.36267 C279.051,221.776722 279.51,222.154769 280.005,222.47881 C280.491,222.80285 281.013,223.081885 281.553,223.306913 C282.102,223.531941 282.66,223.711964 283.236,223.819977 C283.821,223.936992 284.406,224 285,224 C285.585,224 286.17,223.936992 286.755,223.819977 C287.331,223.711964 287.898,223.531941 288.438,223.306913 C288.978,223.081885 289.5,222.80285 289.995,222.47881 C290.481,222.154769 290.949,221.776722 291.363,221.36267 C291.777,220.948619 292.155,220.489561 292.479,219.994499 C292.803,219.508439 293.082,218.986373 293.307,218.437305 C293.532,217.897237 293.703,217.330166 293.82,216.754094 C293.937,216.178022 294,215.583948 294,214.998875 C294,214.413802 293.937,213.819727 293.82,213.243655 C293.703,212.667583 293.532,212.100513 293.307,211.551444 Z" id="path-3"></path>
        <filter x="-13.9%" y="-13.9%" width="155.6%" height="155.6%" filterUnits="objectBoundingBox" id="filter-4">
            <feOffset dx="5" dy="5" in="SourceAlpha" result="shadowOffsetOuter1"></feOffset>
            <feColorMatrix values="0 0 0 0 0.00784313725   0 0 0 0 0.596078431   0 0 0 0 0.921568627  0 0 0 1 0" type="matrix" in="shadowOffsetOuter1"></feColorMatrix>
        </filter>
        <path d="M219.187281,145.012715 L179.106137,139.215371 L161.181486,103.062572 C159.644044,99.9627232 156.472444,98 152.999742,98 C149.527041,98 146.354528,99.9627232 144.817999,103.062572 L129.046678,134.87213 L126.893348,139.215371 L111.721493,141.409697 L86.8131163,145.012715 C83.3759994,145.509527 80.5210117,147.906393 79.4470837,151.194249 C78.3731558,154.482106 79.2691603,158.091482 81.7564394,160.504696 L105.893814,183.925678 L110.757968,188.645841 L107.998786,204.660972 L103.911108,228.381677 C103.323504,231.788514 104.730468,235.232589 107.540747,237.265247 C110.350113,239.296997 114.075557,239.565838 117.149528,237.956423 L152.999742,219.19566 L188.849045,237.956423 C190.183927,238.655774 191.641987,239 193.093661,239 C194.985124,239 196.868376,238.415089 198.457826,237.265247 C201.268104,235.233497 202.675069,231.789422 202.087465,228.381677 L195.240604,188.645841 L224.243958,160.504696 C226.731237,158.091482 227.626329,154.482106 226.553314,151.194249 C225.480298,147.906393 222.624398,145.510435 219.187281,145.012715 Z M179.068727,178.971187 C176.918134,181.057432 175.936362,184.063732 176.444584,187.010087 L180.976615,213.313848 L157.245271,200.895378 C154.587367,199.503942 151.412117,199.503942 148.753302,200.895378 L125.021958,213.314756 L129.553989,187.010996 C129.78757,185.657707 129.692678,184.295335 129.328619,183.011981 C128.899778,181.500657 128.093191,180.100139 126.929845,178.972096 L115.686905,168.063133 L107.731444,160.343936 L116.903172,159.016078 L134.263943,156.504773 C134.537671,156.46481 134.8041,156.401233 135.070529,156.337656 C137.694673,155.713689 139.927384,153.969854 141.134527,151.536658 L153.000655,127.604333 L164.865871,151.536658 C166.195278,154.216897 168.763764,156.075172 171.735542,156.504773 L198.268041,160.343028 L179.068727,178.971187 Z" id="path-5"></path>
        <filter x="-1.7%" y="-1.8%" width="106.8%" height="107.1%" filterUnits="objectBoundingBox" id="filter-6">
            <feOffset dx="5" dy="5" in="SourceAlpha" result="shadowOffsetOuter1"></feOffset>
            <feColorMatrix values="0 0 0 0 0.00784313725   0 0 0 0 0.596078431   0 0 0 0 0.921568627  0 0 0 1 0" type="matrix" in="shadowOffsetOuter1"></feColorMatrix>
        </filter>
    </defs>
    <g id="Artboard" stroke="none" stroke-width="1" fill="none" fill-rule="evenodd">
        <g id="ticket" transform="translate(18.000000, 107.000000)" fill-rule="nonzero">
            <g id="Shape">
                <use fill="black" fill-opacity="1" filter="url(#filter-2)" xlink:href="#path-1"></use>
                <use fill="#1F384A" xlink:href="#path-1"></use>
            </g>
            <g id="Path">
                <use fill="black" fill-opacity="1" filter="url(#filter-4)" xlink:href="#path-3"></use>
                <use fill="#1F384A" xlink:href="#path-3"></use>
            </g>
            <g id="Shape">
                <use fill="black" fill-opacity="1" filter="url(#filter-6)" xlink:href="#path-5"></use>
                <use fill="#1F384A" xlink:href="#path-5"></use>
            </g>
        </g>
    </g>
</svg>